  0
SECTION
  2
BLOCKS
  0
ENDSEC
  0
SECTION
  2
ENTITIES
  0
LINE
  8
0
 10
30.75
 20
31.85
 11
-30.75
 21
31.85
  0
LINE
  8
0
 10
-30.75
 20
31.85
 11
-30.75
 21
-31.85
  0
LINE
  8
0
 10
-30.75
 20
-31.85
 11
30.75
 21
-31.85
  0
LINE
  8
0
 10
30.75
 20
-31.85
 11
30.75
 21
31.85
  0
LINE
  8
0
 10
-4.05789
 20
26.9764
 11
-4.15411
 21
26.9955
  0
LINE
  8
0
 10
-4.15411
 20
26.9955
 11
-4.24701
 21
27.0271
  0
LINE
  8
0
 10
-4.24701
 20
27.0271
 11
-4.33499
 21
27.0705
  0
LINE
  8
0
 10
-4.33499
 20
27.0705
 11
-4.41656
 21
27.125
  0
LINE
  8
0
 10
-4.41656
 20
27.125
 11
-4.49033
 21
27.1897
  0
LINE
  8
0
 10
-4.49033
 20
27.1897
 11
-4.55501
 21
27.2634
  0
LINE
  8
0
 10
-4.55501
 20
27.2634
 11
-4.60951
 21
27.345
  0
LINE
  8
0
 10
-4.60951
 20
27.345
 11
-4.65291
 21
27.433
  0
LINE
  8
0
 10
-4.65291
 20
27.433
 11
-4.68443
 21
27.5259
  0
LINE
  8
0
 10
-4.68443
 20
27.5259
 11
-4.70358
 21
27.6221
  0
LINE
  8
0
 10
-4.70358
 20
27.6221
 11
-4.70999
 21
27.72
  0
LINE
  8
0
 10
-4.70999
 20
27.72
 11
-4.70358
 21
27.8179
  0
LINE
  8
0
 10
-4.70358
 20
27.8179
 11
-4.68443
 21
27.9141
  0
LINE
  8
0
 10
-4.68443
 20
27.9141
 11
-4.65291
 21
28.007
  0
LINE
  8
0
 10
-4.65291
 20
28.007
 11
-4.60951
 21
28.095
  0
LINE
  8
0
 10
-4.60951
 20
28.095
 11
-4.55501
 21
28.1766
  0
LINE
  8
0
 10
-4.55501
 20
28.1766
 11
-4.49033
 21
28.2503
  0
LINE
  8
0
 10
-4.49033
 20
28.2503
 11
-4.41656
 21
28.315
  0
LINE
  8
0
 10
-4.41656
 20
28.315
 11
-4.33499
 21
28.3695
  0
LINE
  8
0
 10
-4.33499
 20
28.3695
 11
-4.24701
 21
28.4129
  0
LINE
  8
0
 10
-4.24701
 20
28.4129
 11
-4.15411
 21
28.4444
  0
LINE
  8
0
 10
-4.15411
 20
28.4444
 11
-4.05789
 21
28.4636
  0
LINE
  8
0
 10
-4.05789
 20
28.4636
 11
-3.95999
 21
28.47
  0
LINE
  8
0
 10
-3.95999
 20
28.47
 11
-3.86209
 21
28.4636
  0
LINE
  8
0
 10
-3.86209
 20
28.4636
 11
-3.76588
 21
28.4444
  0
LINE
  8
0
 10
-3.76588
 20
28.4444
 11
-3.67297
 21
28.4129
  0
LINE
  8
0
 10
-3.67297
 20
28.4129
 11
-3.58499
 21
28.3695
  0
LINE
  8
0
 10
-3.58499
 20
28.3695
 11
-3.50342
 21
28.315
  0
LINE
  8
0
 10
-3.50342
 20
28.315
 11
-3.42966
 21
28.2503
  0
LINE
  8
0
 10
-3.42966
 20
28.2503
 11
-3.36497
 21
28.1766
  0
LINE
  8
0
 10
-3.36497
 20
28.1766
 11
-3.31047
 21
28.095
  0
LINE
  8
0
 10
-3.31047
 20
28.095
 11
-3.26709
 21
28.007
  0
LINE
  8
0
 10
-3.26709
 20
28.007
 11
-3.23555
 21
27.9141
  0
LINE
  8
0
 10
-3.23555
 20
27.9141
 11
-3.21642
 21
27.8179
  0
LINE
  8
0
 10
-3.21642
 20
27.8179
 11
-3.20999
 21
27.72
  0
LINE
  8
0
 10
-3.20999
 20
27.72
 11
-3.21642
 21
27.6221
  0
LINE
  8
0
 10
-3.21642
 20
27.6221
 11
-3.23555
 21
27.5259
  0
LINE
  8
0
 10
-3.23555
 20
27.5259
 11
-3.26709
 21
27.433
  0
LINE
  8
0
 10
-3.26709
 20
27.433
 11
-3.31047
 21
27.345
  0
LINE
  8
0
 10
-3.31047
 20
27.345
 11
-3.36497
 21
27.2634
  0
LINE
  8
0
 10
-3.36497
 20
27.2634
 11
-3.42966
 21
27.1897
  0
LINE
  8
0
 10
-3.42966
 20
27.1897
 11
-3.50342
 21
27.125
  0
LINE
  8
0
 10
-3.50342
 20
27.125
 11
-3.58499
 21
27.0705
  0
LINE
  8
0
 10
-3.58499
 20
27.0705
 11
-3.67297
 21
27.0271
  0
LINE
  8
0
 10
-3.67297
 20
27.0271
 11
-3.76588
 21
26.9955
  0
LINE
  8
0
 10
-3.76588
 20
26.9955
 11
-3.86209
 21
26.9764
  0
LINE
  8
0
 10
-3.86209
 20
26.9764
 11
-3.95999
 21
26.97
  0
LINE
  8
0
 10
-3.95999
 20
26.97
 11
-4.05789
 21
26.9764
  0
LINE
  8
0
 10
27.9521
 20
26.3964
 11
27.8559
 21
26.4155
  0
LINE
  8
0
 10
27.8559
 20
26.4155
 11
27.763
 21
26.4471
  0
LINE
  8
0
 10
27.763
 20
26.4471
 11
27.675
 21
26.4905
  0
LINE
  8
0
 10
27.675
 20
26.4905
 11
27.5934
 21
26.545
  0
LINE
  8
0
 10
27.5934
 20
26.545
 11
27.5197
 21
26.6097
  0
LINE
  8
0
 10
27.5197
 20
26.6097
 11
27.455
 21
26.6834
  0
LINE
  8
0
 10
27.455
 20
26.6834
 11
27.4005
 21
26.765
  0
LINE
  8
0
 10
27.4005
 20
26.765
 11
27.3571
 21
26.853
  0
LINE
  8
0
 10
27.3571
 20
26.853
 11
27.3255
 21
26.9459
  0
LINE
  8
0
 10
27.3255
 20
26.9459
 11
27.3064
 21
27.0421
  0
LINE
  8
0
 10
27.3064
 20
27.0421
 11
27.3
 21
27.14
  0
LINE
  8
0
 10
27.3
 20
27.14
 11
27.3064
 21
27.2379
  0
LINE
  8
0
 10
27.3064
 20
27.2379
 11
27.3255
 21
27.3341
  0
LINE
  8
0
 10
27.3255
 20
27.3341
 11
27.3571
 21
27.427
  0
LINE
  8
0
 10
27.3571
 20
27.427
 11
27.4005
 21
27.515
  0
LINE
  8
0
 10
27.4005
 20
27.515
 11
27.455
 21
27.5966
  0
LINE
  8
0
 10
27.455
 20
27.5966
 11
27.5197
 21
27.6703
  0
LINE
  8
0
 10
27.5197
 20
27.6703
 11
27.5934
 21
27.735
  0
LINE
  8
0
 10
27.5934
 20
27.735
 11
27.675
 21
27.7895
  0
LINE
  8
0
 10
27.675
 20
27.7895
 11
27.763
 21
27.8329
  0
LINE
  8
0
 10
27.763
 20
27.8329
 11
27.8559
 21
27.8644
  0
LINE
  8
0
 10
27.8559
 20
27.8644
 11
27.9521
 21
27.8836
  0
LINE
  8
0
 10
27.9521
 20
27.8836
 11
28.05
 21
27.89
  0
LINE
  8
0
 10
28.05
 20
27.89
 11
28.1479
 21
27.8836
  0
LINE
  8
0
 10
28.1479
 20
27.8836
 11
28.2441
 21
27.8644
  0
LINE
  8
0
 10
28.2441
 20
27.8644
 11
28.337
 21
27.8329
  0
LINE
  8
0
 10
28.337
 20
27.8329
 11
28.425
 21
27.7895
  0
LINE
  8
0
 10
28.425
 20
27.7895
 11
28.5066
 21
27.735
  0
LINE
  8
0
 10
28.5066
 20
27.735
 11
28.5803
 21
27.6703
  0
LINE
  8
0
 10
28.5803
 20
27.6703
 11
28.645
 21
27.5966
  0
LINE
  8
0
 10
28.645
 20
27.5966
 11
28.6995
 21
27.515
  0
LINE
  8
0
 10
28.6995
 20
27.515
 11
28.7429
 21
27.427
  0
LINE
  8
0
 10
28.7429
 20
27.427
 11
28.7744
 21
27.3341
  0
LINE
  8
0
 10
28.7744
 20
27.3341
 11
28.7936
 21
27.2379
  0
LINE
  8
0
 10
28.7936
 20
27.2379
 11
28.8
 21
27.14
  0
LINE
  8
0
 10
28.8
 20
27.14
 11
28.7936
 21
27.0421
  0
LINE
  8
0
 10
28.7936
 20
27.0421
 11
28.7744
 21
26.9459
  0
LINE
  8
0
 10
28.7744
 20
26.9459
 11
28.7429
 21
26.853
  0
LINE
  8
0
 10
28.7429
 20
26.853
 11
28.6995
 21
26.765
  0
LINE
  8
0
 10
28.6995
 20
26.765
 11
28.645
 21
26.6834
  0
LINE
  8
0
 10
28.645
 20
26.6834
 11
28.5803
 21
26.6097
  0
LINE
  8
0
 10
28.5803
 20
26.6097
 11
28.5066
 21
26.545
  0
LINE
  8
0
 10
28.5066
 20
26.545
 11
28.425
 21
26.4905
  0
LINE
  8
0
 10
28.425
 20
26.4905
 11
28.337
 21
26.4471
  0
LINE
  8
0
 10
28.337
 20
26.4471
 11
28.2441
 21
26.4155
  0
LINE
  8
0
 10
28.2441
 20
26.4155
 11
28.1479
 21
26.3964
  0
LINE
  8
0
 10
28.1479
 20
26.3964
 11
28.05
 21
26.39
  0
LINE
  8
0
 10
28.05
 20
26.39
 11
27.9521
 21
26.3964
  0
LINE
  8
0
 10
-28.6479
 20
26.3964
 11
-28.7441
 21
26.4155
  0
LINE
  8
0
 10
-28.7441
 20
26.4155
 11
-28.837
 21
26.4471
  0
LINE
  8
0
 10
-28.837
 20
26.4471
 11
-28.925
 21
26.4905
  0
LINE
  8
0
 10
-28.925
 20
26.4905
 11
-29.0066
 21
26.545
  0
LINE
  8
0
 10
-29.0066
 20
26.545
 11
-29.0803
 21
26.6097
  0
LINE
  8
0
 10
-29.0803
 20
26.6097
 11
-29.145
 21
26.6834
  0
LINE
  8
0
 10
-29.145
 20
26.6834
 11
-29.1995
 21
26.765
  0
LINE
  8
0
 10
-29.1995
 20
26.765
 11
-29.2429
 21
26.853
  0
LINE
  8
0
 10
-29.2429
 20
26.853
 11
-29.2744
 21
26.9459
  0
LINE
  8
0
 10
-29.2744
 20
26.9459
 11
-29.2936
 21
27.0421
  0
LINE
  8
0
 10
-29.2936
 20
27.0421
 11
-29.3
 21
27.14
  0
LINE
  8
0
 10
-29.3
 20
27.14
 11
-29.2936
 21
27.2379
  0
LINE
  8
0
 10
-29.2936
 20
27.2379
 11
-29.2744
 21
27.3341
  0
LINE
  8
0
 10
-29.2744
 20
27.3341
 11
-29.2429
 21
27.427
  0
LINE
  8
0
 10
-29.2429
 20
27.427
 11
-29.1995
 21
27.515
  0
LINE
  8
0
 10
-29.1995
 20
27.515
 11
-29.145
 21
27.5966
  0
LINE
  8
0
 10
-29.145
 20
27.5966
 11
-29.0803
 21
27.6703
  0
LINE
  8
0
 10
-29.0803
 20
27.6703
 11
-29.0066
 21
27.735
  0
LINE
  8
0
 10
-29.0066
 20
27.735
 11
-28.925
 21
27.7895
  0
LINE
  8
0
 10
-28.925
 20
27.7895
 11
-28.837
 21
27.8329
  0
LINE
  8
0
 10
-28.837
 20
27.8329
 11
-28.7441
 21
27.8644
  0
LINE
  8
0
 10
-28.7441
 20
27.8644
 11
-28.6479
 21
27.8836
  0
LINE
  8
0
 10
-28.6479
 20
27.8836
 11
-28.55
 21
27.89
  0
LINE
  8
0
 10
-28.55
 20
27.89
 11
-28.4521
 21
27.8836
  0
LINE
  8
0
 10
-28.4521
 20
27.8836
 11
-28.3559
 21
27.8644
  0
LINE
  8
0
 10
-28.3559
 20
27.8644
 11
-28.263
 21
27.8329
  0
LINE
  8
0
 10
-28.263
 20
27.8329
 11
-28.175
 21
27.7895
  0
LINE
  8
0
 10
-28.175
 20
27.7895
 11
-28.0934
 21
27.735
  0
LINE
  8
0
 10
-28.0934
 20
27.735
 11
-28.0197
 21
27.6703
  0
LINE
  8
0
 10
-28.0197
 20
27.6703
 11
-27.955
 21
27.5966
  0
LINE
  8
0
 10
-27.955
 20
27.5966
 11
-27.9005
 21
27.515
  0
LINE
  8
0
 10
-27.9005
 20
27.515
 11
-27.8571
 21
27.427
  0
LINE
  8
0
 10
-27.8571
 20
27.427
 11
-27.8255
 21
27.3341
  0
LINE
  8
0
 10
-27.8255
 20
27.3341
 11
-27.8064
 21
27.2379
  0
LINE
  8
0
 10
-27.8064
 20
27.2379
 11
-27.8
 21
27.14
  0
LINE
  8
0
 10
-27.8
 20
27.14
 11
-27.8064
 21
27.0421
  0
LINE
  8
0
 10
-27.8064
 20
27.0421
 11
-27.8255
 21
26.9459
  0
LINE
  8
0
 10
-27.8255
 20
26.9459
 11
-27.8571
 21
26.853
  0
LINE
  8
0
 10
-27.8571
 20
26.853
 11
-27.9005
 21
26.765
  0
LINE
  8
0
 10
-27.9005
 20
26.765
 11
-27.955
 21
26.6834
  0
LINE
  8
0
 10
-27.955
 20
26.6834
 11
-28.0197
 21
26.6097
  0
LINE
  8
0
 10
-28.0197
 20
26.6097
 11
-28.0934
 21
26.545
  0
LINE
  8
0
 10
-28.0934
 20
26.545
 11
-28.175
 21
26.4905
  0
LINE
  8
0
 10
-28.175
 20
26.4905
 11
-28.263
 21
26.4471
  0
LINE
  8
0
 10
-28.263
 20
26.4471
 11
-28.3559
 21
26.4155
  0
LINE
  8
0
 10
-28.3559
 20
26.4155
 11
-28.4521
 21
26.3964
  0
LINE
  8
0
 10
-28.4521
 20
26.3964
 11
-28.55
 21
26.39
  0
LINE
  8
0
 10
-28.55
 20
26.39
 11
-28.6479
 21
26.3964
  0
LINE
  8
0
 10
-26
 20
-26
 11
-26
 21
26
  0
LINE
  8
0
 10
-26
 20
26
 11
26
 21
26
  0
LINE
  8
0
 10
26
 20
26
 11
26
 21
-26
  0
LINE
  8
0
 10
26
 20
-26
 11
-26
 21
-26
  0
LINE
  8
0
 10
28.1195
 20
7.75854
 11
27.9912
 21
7.78407
  0
LINE
  8
0
 10
27.9912
 20
7.78407
 11
27.8673
 21
7.82611
  0
LINE
  8
0
 10
27.8673
 20
7.82611
 11
27.75
 21
7.88397
  0
LINE
  8
0
 10
27.75
 20
7.88397
 11
27.6412
 21
7.95663
  0
LINE
  8
0
 10
27.6412
 20
7.95663
 11
27.5429
 21
8.04289
  0
LINE
  8
0
 10
27.5429
 20
8.04289
 11
27.4566
 21
8.14124
  0
LINE
  8
0
 10
27.4566
 20
8.14124
 11
27.384
 21
8.25
  0
LINE
  8
0
 10
27.384
 20
8.25
 11
27.3261
 21
8.36731
  0
LINE
  8
0
 10
27.3261
 20
8.36731
 11
27.2841
 21
8.49118
  0
LINE
  8
0
 10
27.2841
 20
8.49118
 11
27.2585
 21
8.61946
  0
LINE
  8
0
 10
27.2585
 20
8.61946
 11
27.25
 21
8.75
  0
LINE
  8
0
 10
27.25
 20
8.75
 11
27.2585
 21
8.88052
  0
LINE
  8
0
 10
27.2585
 20
8.88052
 11
27.2841
 21
9.0088
  0
LINE
  8
0
 10
27.2841
 20
9.0088
 11
27.3261
 21
9.13268
  0
LINE
  8
0
 10
27.3261
 20
9.13268
 11
27.384
 21
9.25
  0
LINE
  8
0
 10
27.384
 20
9.25
 11
27.4566
 21
9.35875
  0
LINE
  8
0
 10
27.4566
 20
9.35875
 11
27.5429
 21
9.45709
  0
LINE
  8
0
 10
27.5429
 20
9.45709
 11
27.6412
 21
9.54335
  0
LINE
  8
0
 10
27.6412
 20
9.54335
 11
27.75
 21
9.61601
  0
LINE
  8
0
 10
27.75
 20
9.61601
 11
27.8673
 21
9.67387
  0
LINE
  8
0
 10
27.8673
 20
9.67387
 11
27.9912
 21
9.71591
  0
LINE
  8
0
 10
27.9912
 20
9.71591
 11
28.1195
 21
9.74144
  0
LINE
  8
0
 10
28.1195
 20
9.74144
 11
28.25
 21
9.75
  0
LINE
  8
0
 10
28.25
 20
9.75
 11
28.3805
 21
9.74144
  0
LINE
  8
0
 10
28.3805
 20
9.74144
 11
28.5088
 21
9.71591
  0
LINE
  8
0
 10
28.5088
 20
9.71591
 11
28.6327
 21
9.67387
  0
LINE
  8
0
 10
28.6327
 20
9.67387
 11
28.75
 21
9.61601
  0
LINE
  8
0
 10
28.75
 20
9.61601
 11
28.8587
 21
9.54335
  0
LINE
  8
0
 10
28.8587
 20
9.54335
 11
28.9571
 21
9.45709
  0
LINE
  8
0
 10
28.9571
 20
9.45709
 11
29.0434
 21
9.35875
  0
LINE
  8
0
 10
29.0434
 20
9.35875
 11
29.116
 21
9.25
  0
LINE
  8
0
 10
29.116
 20
9.25
 11
29.1739
 21
9.13268
  0
LINE
  8
0
 10
29.1739
 20
9.13268
 11
29.2159
 21
9.0088
  0
LINE
  8
0
 10
29.2159
 20
9.0088
 11
29.2414
 21
8.88052
  0
LINE
  8
0
 10
29.2414
 20
8.88052
 11
29.25
 21
8.75
  0
LINE
  8
0
 10
29.25
 20
8.75
 11
29.2414
 21
8.61946
  0
LINE
  8
0
 10
29.2414
 20
8.61946
 11
29.2159
 21
8.49118
  0
LINE
  8
0
 10
29.2159
 20
8.49118
 11
29.1739
 21
8.36731
  0
LINE
  8
0
 10
29.1739
 20
8.36731
 11
29.116
 21
8.25
  0
LINE
  8
0
 10
29.116
 20
8.25
 11
29.0434
 21
8.14124
  0
LINE
  8
0
 10
29.0434
 20
8.14124
 11
28.9571
 21
8.04289
  0
LINE
  8
0
 10
28.9571
 20
8.04289
 11
28.8587
 21
7.95663
  0
LINE
  8
0
 10
28.8587
 20
7.95663
 11
28.75
 21
7.88397
  0
LINE
  8
0
 10
28.75
 20
7.88397
 11
28.6327
 21
7.82611
  0
LINE
  8
0
 10
28.6327
 20
7.82611
 11
28.5088
 21
7.78407
  0
LINE
  8
0
 10
28.5088
 20
7.78407
 11
28.3805
 21
7.75854
  0
LINE
  8
0
 10
28.3805
 20
7.75854
 11
28.25
 21
7.75
  0
LINE
  8
0
 10
28.25
 20
7.75
 11
28.1195
 21
7.75854
  0
LINE
  8
0
 10
27.9521
 20
-0.743576
 11
27.8559
 21
-0.724442
  0
LINE
  8
0
 10
27.8559
 20
-0.724442
 11
27.763
 21
-0.692902
  0
LINE
  8
0
 10
27.763
 20
-0.692902
 11
27.675
 21
-0.649506
  0
LINE
  8
0
 10
27.675
 20
-0.649506
 11
27.5934
 21
-0.595001
  0
LINE
  8
0
 10
27.5934
 20
-0.595001
 11
27.5197
 21
-0.530319
  0
LINE
  8
0
 10
27.5197
 20
-0.530319
 11
27.455
 21
-0.456558
  0
LINE
  8
0
 10
27.455
 20
-0.456558
 11
27.4005
 21
-0.375
  0
LINE
  8
0
 10
27.4005
 20
-0.375
 11
27.3571
 21
-0.287003
  0
LINE
  8
0
 10
27.3571
 20
-0.287003
 11
27.3255
 21
-0.194107
  0
LINE
  8
0
 10
27.3255
 20
-0.194107
 11
27.3064
 21
-0.0978851
  0
LINE
  8
0
 10
27.3064
 20
-0.0978851
 11
27.3
 21
0
  0
LINE
  8
0
 10
27.3
 20
0
 11
27.3064
 21
0.0978851
  0
LINE
  8
0
 10
27.3064
 20
0.0978851
 11
27.3255
 21
0.194107
  0
LINE
  8
0
 10
27.3255
 20
0.194107
 11
27.3571
 21
0.287003
  0
LINE
  8
0
 10
27.3571
 20
0.287003
 11
27.4005
 21
0.375
  0
LINE
  8
0
 10
27.4005
 20
0.375
 11
27.455
 21
0.456558
  0
LINE
  8
0
 10
27.455
 20
0.456558
 11
27.5197
 21
0.530319
  0
LINE
  8
0
 10
27.5197
 20
0.530319
 11
27.5934
 21
0.595001
  0
LINE
  8
0
 10
27.5934
 20
0.595001
 11
27.675
 21
0.649506
  0
LINE
  8
0
 10
27.675
 20
0.649506
 11
27.763
 21
0.692902
  0
LINE
  8
0
 10
27.763
 20
0.692902
 11
27.8559
 21
0.724442
  0
LINE
  8
0
 10
27.8559
 20
0.724442
 11
27.9521
 21
0.743576
  0
LINE
  8
0
 10
27.9521
 20
0.743576
 11
28.05
 21
0.75
  0
LINE
  8
0
 10
28.05
 20
0.75
 11
28.1479
 21
0.743576
  0
LINE
  8
0
 10
28.1479
 20
0.743576
 11
28.2441
 21
0.724442
  0
LINE
  8
0
 10
28.2441
 20
0.724442
 11
28.337
 21
0.692902
  0
LINE
  8
0
 10
28.337
 20
0.692902
 11
28.425
 21
0.649506
  0
LINE
  8
0
 10
28.425
 20
0.649506
 11
28.5066
 21
0.595001
  0
LINE
  8
0
 10
28.5066
 20
0.595001
 11
28.5803
 21
0.530319
  0
LINE
  8
0
 10
28.5803
 20
0.530319
 11
28.645
 21
0.456558
  0
LINE
  8
0
 10
28.645
 20
0.456558
 11
28.6995
 21
0.375
  0
LINE
  8
0
 10
28.6995
 20
0.375
 11
28.7429
 21
0.287003
  0
LINE
  8
0
 10
28.7429
 20
0.287003
 11
28.7744
 21
0.194107
  0
LINE
  8
0
 10
28.7744
 20
0.194107
 11
28.7936
 21
0.0978851
  0
LINE
  8
0
 10
28.7936
 20
0.0978851
 11
28.8
 21
0
  0
LINE
  8
0
 10
28.8
 20
0
 11
28.7936
 21
-0.0978851
  0
LINE
  8
0
 10
28.7936
 20
-0.0978851
 11
28.7744
 21
-0.194107
  0
LINE
  8
0
 10
28.7744
 20
-0.194107
 11
28.7429
 21
-0.287003
  0
LINE
  8
0
 10
28.7429
 20
-0.287003
 11
28.6995
 21
-0.375
  0
LINE
  8
0
 10
28.6995
 20
-0.375
 11
28.645
 21
-0.456558
  0
LINE
  8
0
 10
28.645
 20
-0.456558
 11
28.5803
 21
-0.530319
  0
LINE
  8
0
 10
28.5803
 20
-0.530319
 11
28.5066
 21
-0.595001
  0
LINE
  8
0
 10
28.5066
 20
-0.595001
 11
28.425
 21
-0.649506
  0
LINE
  8
0
 10
28.425
 20
-0.649506
 11
28.337
 21
-0.692902
  0
LINE
  8
0
 10
28.337
 20
-0.692902
 11
28.2441
 21
-0.724442
  0
LINE
  8
0
 10
28.2441
 20
-0.724442
 11
28.1479
 21
-0.743576
  0
LINE
  8
0
 10
28.1479
 20
-0.743576
 11
28.05
 21
-0.75
  0
LINE
  8
0
 10
28.05
 20
-0.75
 11
27.9521
 21
-0.743576
  0
LINE
  8
0
 10
-28.6479
 20
-0.743576
 11
-28.7441
 21
-0.724442
  0
LINE
  8
0
 10
-28.7441
 20
-0.724442
 11
-28.837
 21
-0.692902
  0
LINE
  8
0
 10
-28.837
 20
-0.692902
 11
-28.925
 21
-0.649506
  0
LINE
  8
0
 10
-28.925
 20
-0.649506
 11
-29.0066
 21
-0.595001
  0
LINE
  8
0
 10
-29.0066
 20
-0.595001
 11
-29.0803
 21
-0.530319
  0
LINE
  8
0
 10
-29.0803
 20
-0.530319
 11
-29.145
 21
-0.456558
  0
LINE
  8
0
 10
-29.145
 20
-0.456558
 11
-29.1995
 21
-0.375
  0
LINE
  8
0
 10
-29.1995
 20
-0.375
 11
-29.2429
 21
-0.287003
  0
LINE
  8
0
 10
-29.2429
 20
-0.287003
 11
-29.2744
 21
-0.194107
  0
LINE
  8
0
 10
-29.2744
 20
-0.194107
 11
-29.2936
 21
-0.0978851
  0
LINE
  8
0
 10
-29.2936
 20
-0.0978851
 11
-29.3
 21
0
  0
LINE
  8
0
 10
-29.3
 20
0
 11
-29.2936
 21
0.0978851
  0
LINE
  8
0
 10
-29.2936
 20
0.0978851
 11
-29.2744
 21
0.194107
  0
LINE
  8
0
 10
-29.2744
 20
0.194107
 11
-29.2429
 21
0.287003
  0
LINE
  8
0
 10
-29.2429
 20
0.287003
 11
-29.1995
 21
0.375
  0
LINE
  8
0
 10
-29.1995
 20
0.375
 11
-29.145
 21
0.456558
  0
LINE
  8
0
 10
-29.145
 20
0.456558
 11
-29.0803
 21
0.530319
  0
LINE
  8
0
 10
-29.0803
 20
0.530319
 11
-29.0066
 21
0.595001
  0
LINE
  8
0
 10
-29.0066
 20
0.595001
 11
-28.925
 21
0.649506
  0
LINE
  8
0
 10
-28.925
 20
0.649506
 11
-28.837
 21
0.692902
  0
LINE
  8
0
 10
-28.837
 20
0.692902
 11
-28.7441
 21
0.724442
  0
LINE
  8
0
 10
-28.7441
 20
0.724442
 11
-28.6479
 21
0.743576
  0
LINE
  8
0
 10
-28.6479
 20
0.743576
 11
-28.55
 21
0.75
  0
LINE
  8
0
 10
-28.55
 20
0.75
 11
-28.4521
 21
0.743576
  0
LINE
  8
0
 10
-28.4521
 20
0.743576
 11
-28.3559
 21
0.724442
  0
LINE
  8
0
 10
-28.3559
 20
0.724442
 11
-28.263
 21
0.692902
  0
LINE
  8
0
 10
-28.263
 20
0.692902
 11
-28.175
 21
0.649506
  0
LINE
  8
0
 10
-28.175
 20
0.649506
 11
-28.0934
 21
0.595001
  0
LINE
  8
0
 10
-28.0934
 20
0.595001
 11
-28.0197
 21
0.530319
  0
LINE
  8
0
 10
-28.0197
 20
0.530319
 11
-27.955
 21
0.456558
  0
LINE
  8
0
 10
-27.955
 20
0.456558
 11
-27.9005
 21
0.375
  0
LINE
  8
0
 10
-27.9005
 20
0.375
 11
-27.8571
 21
0.287003
  0
LINE
  8
0
 10
-27.8571
 20
0.287003
 11
-27.8255
 21
0.194107
  0
LINE
  8
0
 10
-27.8255
 20
0.194107
 11
-27.8064
 21
0.0978851
  0
LINE
  8
0
 10
-27.8064
 20
0.0978851
 11
-27.8
 21
0
  0
LINE
  8
0
 10
-27.8
 20
0
 11
-27.8064
 21
-0.0978851
  0
LINE
  8
0
 10
-27.8064
 20
-0.0978851
 11
-27.8255
 21
-0.194107
  0
LINE
  8
0
 10
-27.8255
 20
-0.194107
 11
-27.8571
 21
-0.287003
  0
LINE
  8
0
 10
-27.8571
 20
-0.287003
 11
-27.9005
 21
-0.375
  0
LINE
  8
0
 10
-27.9005
 20
-0.375
 11
-27.955
 21
-0.456558
  0
LINE
  8
0
 10
-27.955
 20
-0.456558
 11
-28.0197
 21
-0.530319
  0
LINE
  8
0
 10
-28.0197
 20
-0.530319
 11
-28.0934
 21
-0.595001
  0
LINE
  8
0
 10
-28.0934
 20
-0.595001
 11
-28.175
 21
-0.649506
  0
LINE
  8
0
 10
-28.175
 20
-0.649506
 11
-28.263
 21
-0.692902
  0
LINE
  8
0
 10
-28.263
 20
-0.692902
 11
-28.3559
 21
-0.724442
  0
LINE
  8
0
 10
-28.3559
 20
-0.724442
 11
-28.4521
 21
-0.743576
  0
LINE
  8
0
 10
-28.4521
 20
-0.743576
 11
-28.55
 21
-0.75
  0
LINE
  8
0
 10
-28.55
 20
-0.75
 11
-28.6479
 21
-0.743576
  0
LINE
  8
0
 10
28.1195
 20
-9.74144
 11
27.9912
 21
-9.71591
  0
LINE
  8
0
 10
27.9912
 20
-9.71591
 11
27.8673
 21
-9.67387
  0
LINE
  8
0
 10
27.8673
 20
-9.67387
 11
27.75
 21
-9.61601
  0
LINE
  8
0
 10
27.75
 20
-9.61601
 11
27.6412
 21
-9.54335
  0
LINE
  8
0
 10
27.6412
 20
-9.54335
 11
27.5429
 21
-9.45709
  0
LINE
  8
0
 10
27.5429
 20
-9.45709
 11
27.4566
 21
-9.35875
  0
LINE
  8
0
 10
27.4566
 20
-9.35875
 11
27.384
 21
-9.25
  0
LINE
  8
0
 10
27.384
 20
-9.25
 11
27.3261
 21
-9.13268
  0
LINE
  8
0
 10
27.3261
 20
-9.13268
 11
27.2841
 21
-9.0088
  0
LINE
  8
0
 10
27.2841
 20
-9.0088
 11
27.2585
 21
-8.88052
  0
LINE
  8
0
 10
27.2585
 20
-8.88052
 11
27.25
 21
-8.75
  0
LINE
  8
0
 10
27.25
 20
-8.75
 11
27.2585
 21
-8.61946
  0
LINE
  8
0
 10
27.2585
 20
-8.61946
 11
27.2841
 21
-8.49118
  0
LINE
  8
0
 10
27.2841
 20
-8.49118
 11
27.3261
 21
-8.36731
  0
LINE
  8
0
 10
27.3261
 20
-8.36731
 11
27.384
 21
-8.25
  0
LINE
  8
0
 10
27.384
 20
-8.25
 11
27.4566
 21
-8.14124
  0
LINE
  8
0
 10
27.4566
 20
-8.14124
 11
27.5429
 21
-8.04289
  0
LINE
  8
0
 10
27.5429
 20
-8.04289
 11
27.6412
 21
-7.95663
  0
LINE
  8
0
 10
27.6412
 20
-7.95663
 11
27.75
 21
-7.88397
  0
LINE
  8
0
 10
27.75
 20
-7.88397
 11
27.8673
 21
-7.82611
  0
LINE
  8
0
 10
27.8673
 20
-7.82611
 11
27.9912
 21
-7.78407
  0
LINE
  8
0
 10
27.9912
 20
-7.78407
 11
28.1195
 21
-7.75854
  0
LINE
  8
0
 10
28.1195
 20
-7.75854
 11
28.25
 21
-7.75
  0
LINE
  8
0
 10
28.25
 20
-7.75
 11
28.3805
 21
-7.75854
  0
LINE
  8
0
 10
28.3805
 20
-7.75854
 11
28.5088
 21
-7.78407
  0
LINE
  8
0
 10
28.5088
 20
-7.78407
 11
28.6327
 21
-7.82611
  0
LINE
  8
0
 10
28.6327
 20
-7.82611
 11
28.75
 21
-7.88397
  0
LINE
  8
0
 10
28.75
 20
-7.88397
 11
28.8587
 21
-7.95663
  0
LINE
  8
0
 10
28.8587
 20
-7.95663
 11
28.9571
 21
-8.04289
  0
LINE
  8
0
 10
28.9571
 20
-8.04289
 11
29.0434
 21
-8.14124
  0
LINE
  8
0
 10
29.0434
 20
-8.14124
 11
29.116
 21
-8.25
  0
LINE
  8
0
 10
29.116
 20
-8.25
 11
29.1739
 21
-8.36731
  0
LINE
  8
0
 10
29.1739
 20
-8.36731
 11
29.2159
 21
-8.49118
  0
LINE
  8
0
 10
29.2159
 20
-8.49118
 11
29.2414
 21
-8.61946
  0
LINE
  8
0
 10
29.2414
 20
-8.61946
 11
29.25
 21
-8.75
  0
LINE
  8
0
 10
29.25
 20
-8.75
 11
29.2414
 21
-8.88052
  0
LINE
  8
0
 10
29.2414
 20
-8.88052
 11
29.2159
 21
-9.0088
  0
LINE
  8
0
 10
29.2159
 20
-9.0088
 11
29.1739
 21
-9.13268
  0
LINE
  8
0
 10
29.1739
 20
-9.13268
 11
29.116
 21
-9.25
  0
LINE
  8
0
 10
29.116
 20
-9.25
 11
29.0434
 21
-9.35875
  0
LINE
  8
0
 10
29.0434
 20
-9.35875
 11
28.9571
 21
-9.45709
  0
LINE
  8
0
 10
28.9571
 20
-9.45709
 11
28.8587
 21
-9.54335
  0
LINE
  8
0
 10
28.8587
 20
-9.54335
 11
28.75
 21
-9.61601
  0
LINE
  8
0
 10
28.75
 20
-9.61601
 11
28.6327
 21
-9.67387
  0
LINE
  8
0
 10
28.6327
 20
-9.67387
 11
28.5088
 21
-9.71591
  0
LINE
  8
0
 10
28.5088
 20
-9.71591
 11
28.3805
 21
-9.74144
  0
LINE
  8
0
 10
28.3805
 20
-9.74144
 11
28.25
 21
-9.75
  0
LINE
  8
0
 10
28.25
 20
-9.75
 11
28.1195
 21
-9.74144
  0
LINE
  8
0
 10
27.9521
 20
-27.8836
 11
27.8559
 21
-27.8644
  0
LINE
  8
0
 10
27.8559
 20
-27.8644
 11
27.763
 21
-27.8329
  0
LINE
  8
0
 10
27.763
 20
-27.8329
 11
27.675
 21
-27.7895
  0
LINE
  8
0
 10
27.675
 20
-27.7895
 11
27.5934
 21
-27.735
  0
LINE
  8
0
 10
27.5934
 20
-27.735
 11
27.5197
 21
-27.6703
  0
LINE
  8
0
 10
27.5197
 20
-27.6703
 11
27.455
 21
-27.5966
  0
LINE
  8
0
 10
27.455
 20
-27.5966
 11
27.4005
 21
-27.515
  0
LINE
  8
0
 10
27.4005
 20
-27.515
 11
27.3571
 21
-27.427
  0
LINE
  8
0
 10
27.3571
 20
-27.427
 11
27.3255
 21
-27.3341
  0
LINE
  8
0
 10
27.3255
 20
-27.3341
 11
27.3064
 21
-27.2379
  0
LINE
  8
0
 10
27.3064
 20
-27.2379
 11
27.3
 21
-27.14
  0
LINE
  8
0
 10
27.3
 20
-27.14
 11
27.3064
 21
-27.0421
  0
LINE
  8
0
 10
27.3064
 20
-27.0421
 11
27.3255
 21
-26.9459
  0
LINE
  8
0
 10
27.3255
 20
-26.9459
 11
27.3571
 21
-26.853
  0
LINE
  8
0
 10
27.3571
 20
-26.853
 11
27.4005
 21
-26.765
  0
LINE
  8
0
 10
27.4005
 20
-26.765
 11
27.455
 21
-26.6834
  0
LINE
  8
0
 10
27.455
 20
-26.6834
 11
27.5197
 21
-26.6097
  0
LINE
  8
0
 10
27.5197
 20
-26.6097
 11
27.5934
 21
-26.545
  0
LINE
  8
0
 10
27.5934
 20
-26.545
 11
27.675
 21
-26.4905
  0
LINE
  8
0
 10
27.675
 20
-26.4905
 11
27.763
 21
-26.4471
  0
LINE
  8
0
 10
27.763
 20
-26.4471
 11
27.8559
 21
-26.4155
  0
LINE
  8
0
 10
27.8559
 20
-26.4155
 11
27.9521
 21
-26.3964
  0
LINE
  8
0
 10
27.9521
 20
-26.3964
 11
28.05
 21
-26.39
  0
LINE
  8
0
 10
28.05
 20
-26.39
 11
28.1479
 21
-26.3964
  0
LINE
  8
0
 10
28.1479
 20
-26.3964
 11
28.2441
 21
-26.4155
  0
LINE
  8
0
 10
28.2441
 20
-26.4155
 11
28.337
 21
-26.4471
  0
LINE
  8
0
 10
28.337
 20
-26.4471
 11
28.425
 21
-26.4905
  0
LINE
  8
0
 10
28.425
 20
-26.4905
 11
28.5066
 21
-26.545
  0
LINE
  8
0
 10
28.5066
 20
-26.545
 11
28.5803
 21
-26.6097
  0
LINE
  8
0
 10
28.5803
 20
-26.6097
 11
28.645
 21
-26.6834
  0
LINE
  8
0
 10
28.645
 20
-26.6834
 11
28.6995
 21
-26.765
  0
LINE
  8
0
 10
28.6995
 20
-26.765
 11
28.7429
 21
-26.853
  0
LINE
  8
0
 10
28.7429
 20
-26.853
 11
28.7744
 21
-26.9459
  0
LINE
  8
0
 10
28.7744
 20
-26.9459
 11
28.7936
 21
-27.0421
  0
LINE
  8
0
 10
28.7936
 20
-27.0421
 11
28.8
 21
-27.14
  0
LINE
  8
0
 10
28.8
 20
-27.14
 11
28.7936
 21
-27.2379
  0
LINE
  8
0
 10
28.7936
 20
-27.2379
 11
28.7744
 21
-27.3341
  0
LINE
  8
0
 10
28.7744
 20
-27.3341
 11
28.7429
 21
-27.427
  0
LINE
  8
0
 10
28.7429
 20
-27.427
 11
28.6995
 21
-27.515
  0
LINE
  8
0
 10
28.6995
 20
-27.515
 11
28.645
 21
-27.5966
  0
LINE
  8
0
 10
28.645
 20
-27.5966
 11
28.5803
 21
-27.6703
  0
LINE
  8
0
 10
28.5803
 20
-27.6703
 11
28.5066
 21
-27.735
  0
LINE
  8
0
 10
28.5066
 20
-27.735
 11
28.425
 21
-27.7895
  0
LINE
  8
0
 10
28.425
 20
-27.7895
 11
28.337
 21
-27.8329
  0
LINE
  8
0
 10
28.337
 20
-27.8329
 11
28.2441
 21
-27.8644
  0
LINE
  8
0
 10
28.2441
 20
-27.8644
 11
28.1479
 21
-27.8836
  0
LINE
  8
0
 10
28.1479
 20
-27.8836
 11
28.05
 21
-27.89
  0
LINE
  8
0
 10
28.05
 20
-27.89
 11
27.9521
 21
-27.8836
  0
LINE
  8
0
 10
-28.6479
 20
-27.8836
 11
-28.7441
 21
-27.8644
  0
LINE
  8
0
 10
-28.7441
 20
-27.8644
 11
-28.837
 21
-27.8329
  0
LINE
  8
0
 10
-28.837
 20
-27.8329
 11
-28.925
 21
-27.7895
  0
LINE
  8
0
 10
-28.925
 20
-27.7895
 11
-29.0066
 21
-27.735
  0
LINE
  8
0
 10
-29.0066
 20
-27.735
 11
-29.0803
 21
-27.6703
  0
LINE
  8
0
 10
-29.0803
 20
-27.6703
 11
-29.145
 21
-27.5966
  0
LINE
  8
0
 10
-29.145
 20
-27.5966
 11
-29.1995
 21
-27.515
  0
LINE
  8
0
 10
-29.1995
 20
-27.515
 11
-29.2429
 21
-27.427
  0
LINE
  8
0
 10
-29.2429
 20
-27.427
 11
-29.2744
 21
-27.3341
  0
LINE
  8
0
 10
-29.2744
 20
-27.3341
 11
-29.2936
 21
-27.2379
  0
LINE
  8
0
 10
-29.2936
 20
-27.2379
 11
-29.3
 21
-27.14
  0
LINE
  8
0
 10
-29.3
 20
-27.14
 11
-29.2936
 21
-27.0421
  0
LINE
  8
0
 10
-29.2936
 20
-27.0421
 11
-29.2744
 21
-26.9459
  0
LINE
  8
0
 10
-29.2744
 20
-26.9459
 11
-29.2429
 21
-26.853
  0
LINE
  8
0
 10
-29.2429
 20
-26.853
 11
-29.1995
 21
-26.765
  0
LINE
  8
0
 10
-29.1995
 20
-26.765
 11
-29.145
 21
-26.6834
  0
LINE
  8
0
 10
-29.145
 20
-26.6834
 11
-29.0803
 21
-26.6097
  0
LINE
  8
0
 10
-29.0803
 20
-26.6097
 11
-29.0066
 21
-26.545
  0
LINE
  8
0
 10
-29.0066
 20
-26.545
 11
-28.925
 21
-26.4905
  0
LINE
  8
0
 10
-28.925
 20
-26.4905
 11
-28.837
 21
-26.4471
  0
LINE
  8
0
 10
-28.837
 20
-26.4471
 11
-28.7441
 21
-26.4155
  0
LINE
  8
0
 10
-28.7441
 20
-26.4155
 11
-28.6479
 21
-26.3964
  0
LINE
  8
0
 10
-28.6479
 20
-26.3964
 11
-28.55
 21
-26.39
  0
LINE
  8
0
 10
-28.55
 20
-26.39
 11
-28.4521
 21
-26.3964
  0
LINE
  8
0
 10
-28.4521
 20
-26.3964
 11
-28.3559
 21
-26.4155
  0
LINE
  8
0
 10
-28.3559
 20
-26.4155
 11
-28.263
 21
-26.4471
  0
LINE
  8
0
 10
-28.263
 20
-26.4471
 11
-28.175
 21
-26.4905
  0
LINE
  8
0
 10
-28.175
 20
-26.4905
 11
-28.0934
 21
-26.545
  0
LINE
  8
0
 10
-28.0934
 20
-26.545
 11
-28.0197
 21
-26.6097
  0
LINE
  8
0
 10
-28.0197
 20
-26.6097
 11
-27.955
 21
-26.6834
  0
LINE
  8
0
 10
-27.955
 20
-26.6834
 11
-27.9005
 21
-26.765
  0
LINE
  8
0
 10
-27.9005
 20
-26.765
 11
-27.8571
 21
-26.853
  0
LINE
  8
0
 10
-27.8571
 20
-26.853
 11
-27.8255
 21
-26.9459
  0
LINE
  8
0
 10
-27.8255
 20
-26.9459
 11
-27.8064
 21
-27.0421
  0
LINE
  8
0
 10
-27.8064
 20
-27.0421
 11
-27.8
 21
-27.14
  0
LINE
  8
0
 10
-27.8
 20
-27.14
 11
-27.8064
 21
-27.2379
  0
LINE
  8
0
 10
-27.8064
 20
-27.2379
 11
-27.8255
 21
-27.3341
  0
LINE
  8
0
 10
-27.8255
 20
-27.3341
 11
-27.8571
 21
-27.427
  0
LINE
  8
0
 10
-27.8571
 20
-27.427
 11
-27.9005
 21
-27.515
  0
LINE
  8
0
 10
-27.9005
 20
-27.515
 11
-27.955
 21
-27.5966
  0
LINE
  8
0
 10
-27.955
 20
-27.5966
 11
-28.0197
 21
-27.6703
  0
LINE
  8
0
 10
-28.0197
 20
-27.6703
 11
-28.0934
 21
-27.735
  0
LINE
  8
0
 10
-28.0934
 20
-27.735
 11
-28.175
 21
-27.7895
  0
LINE
  8
0
 10
-28.175
 20
-27.7895
 11
-28.263
 21
-27.8329
  0
LINE
  8
0
 10
-28.263
 20
-27.8329
 11
-28.3559
 21
-27.8644
  0
LINE
  8
0
 10
-28.3559
 20
-27.8644
 11
-28.4521
 21
-27.8836
  0
LINE
  8
0
 10
-28.4521
 20
-27.8836
 11
-28.55
 21
-27.89
  0
LINE
  8
0
 10
-28.55
 20
-27.89
 11
-28.6479
 21
-27.8836
  0
LINE
  8
0
 10
-4.05789
 20
-28.4636
 11
-4.15411
 21
-28.4444
  0
LINE
  8
0
 10
-4.15411
 20
-28.4444
 11
-4.24701
 21
-28.4129
  0
LINE
  8
0
 10
-4.24701
 20
-28.4129
 11
-4.33499
 21
-28.3695
  0
LINE
  8
0
 10
-4.33499
 20
-28.3695
 11
-4.41656
 21
-28.315
  0
LINE
  8
0
 10
-4.41656
 20
-28.315
 11
-4.49033
 21
-28.2503
  0
LINE
  8
0
 10
-4.49033
 20
-28.2503
 11
-4.55501
 21
-28.1766
  0
LINE
  8
0
 10
-4.55501
 20
-28.1766
 11
-4.60951
 21
-28.095
  0
LINE
  8
0
 10
-4.60951
 20
-28.095
 11
-4.65291
 21
-28.007
  0
LINE
  8
0
 10
-4.65291
 20
-28.007
 11
-4.68443
 21
-27.9141
  0
LINE
  8
0
 10
-4.68443
 20
-27.9141
 11
-4.70358
 21
-27.8179
  0
LINE
  8
0
 10
-4.70358
 20
-27.8179
 11
-4.70999
 21
-27.72
  0
LINE
  8
0
 10
-4.70999
 20
-27.72
 11
-4.70358
 21
-27.6221
  0
LINE
  8
0
 10
-4.70358
 20
-27.6221
 11
-4.68443
 21
-27.5259
  0
LINE
  8
0
 10
-4.68443
 20
-27.5259
 11
-4.65291
 21
-27.433
  0
LINE
  8
0
 10
-4.65291
 20
-27.433
 11
-4.60951
 21
-27.345
  0
LINE
  8
0
 10
-4.60951
 20
-27.345
 11
-4.55501
 21
-27.2634
  0
LINE
  8
0
 10
-4.55501
 20
-27.2634
 11
-4.49033
 21
-27.1897
  0
LINE
  8
0
 10
-4.49033
 20
-27.1897
 11
-4.41656
 21
-27.125
  0
LINE
  8
0
 10
-4.41656
 20
-27.125
 11
-4.33499
 21
-27.0705
  0
LINE
  8
0
 10
-4.33499
 20
-27.0705
 11
-4.24701
 21
-27.0271
  0
LINE
  8
0
 10
-4.24701
 20
-27.0271
 11
-4.15411
 21
-26.9955
  0
LINE
  8
0
 10
-4.15411
 20
-26.9955
 11
-4.05789
 21
-26.9764
  0
LINE
  8
0
 10
-4.05789
 20
-26.9764
 11
-3.95999
 21
-26.97
  0
LINE
  8
0
 10
-3.95999
 20
-26.97
 11
-3.86209
 21
-26.9764
  0
LINE
  8
0
 10
-3.86209
 20
-26.9764
 11
-3.76588
 21
-26.9955
  0
LINE
  8
0
 10
-3.76588
 20
-26.9955
 11
-3.67297
 21
-27.0271
  0
LINE
  8
0
 10
-3.67297
 20
-27.0271
 11
-3.58499
 21
-27.0705
  0
LINE
  8
0
 10
-3.58499
 20
-27.0705
 11
-3.50342
 21
-27.125
  0
LINE
  8
0
 10
-3.50342
 20
-27.125
 11
-3.42966
 21
-27.1897
  0
LINE
  8
0
 10
-3.42966
 20
-27.1897
 11
-3.36497
 21
-27.2634
  0
LINE
  8
0
 10
-3.36497
 20
-27.2634
 11
-3.31047
 21
-27.345
  0
LINE
  8
0
 10
-3.31047
 20
-27.345
 11
-3.26709
 21
-27.433
  0
LINE
  8
0
 10
-3.26709
 20
-27.433
 11
-3.23555
 21
-27.5259
  0
LINE
  8
0
 10
-3.23555
 20
-27.5259
 11
-3.21642
 21
-27.6221
  0
LINE
  8
0
 10
-3.21642
 20
-27.6221
 11
-3.20999
 21
-27.72
  0
LINE
  8
0
 10
-3.20999
 20
-27.72
 11
-3.21642
 21
-27.8179
  0
LINE
  8
0
 10
-3.21642
 20
-27.8179
 11
-3.23555
 21
-27.9141
  0
LINE
  8
0
 10
-3.23555
 20
-27.9141
 11
-3.26709
 21
-28.007
  0
LINE
  8
0
 10
-3.26709
 20
-28.007
 11
-3.31047
 21
-28.095
  0
LINE
  8
0
 10
-3.31047
 20
-28.095
 11
-3.36497
 21
-28.1766
  0
LINE
  8
0
 10
-3.36497
 20
-28.1766
 11
-3.42966
 21
-28.2503
  0
LINE
  8
0
 10
-3.42966
 20
-28.2503
 11
-3.50342
 21
-28.315
  0
LINE
  8
0
 10
-3.50342
 20
-28.315
 11
-3.58499
 21
-28.3695
  0
LINE
  8
0
 10
-3.58499
 20
-28.3695
 11
-3.67297
 21
-28.4129
  0
LINE
  8
0
 10
-3.67297
 20
-28.4129
 11
-3.76588
 21
-28.4444
  0
LINE
  8
0
 10
-3.76588
 20
-28.4444
 11
-3.86209
 21
-28.4636
  0
LINE
  8
0
 10
-3.86209
 20
-28.4636
 11
-3.95999
 21
-28.47
  0
LINE
  8
0
 10
-3.95999
 20
-28.47
 11
-4.05789
 21
-28.4636
  0
ENDSEC
  0
SECTION
  2
OBJECTS
  0
DICTIONARY
  0
ENDSEC
  0
EOF
